<?xml version="1.0" encoding="UTF-8" standalone="no"?>
<!DOCTYPE svg PUBLIC "-//W3C//DTD SVG 1.1//EN" "http://www.w3.org/Graphics/SVG/1.1/DTD/svg11.dtd">
<svg width="100%" height="100%" viewBox="0 0 90 100" version="1.1" xmlns="http://www.w3.org/2000/svg" xmlns:xlink="http://www.w3.org/1999/xlink" xml:space="preserve" style="fill-rule:evenodd;clip-rule:evenodd;stroke-linejoin:round;stroke-miterlimit:1.41421;">
    <g transform="matrix(1,0,0,1,-1205,-70)">
        <g transform="matrix(0.866127,0,0,0.757734,-3095.54,-508.44)">
            <g id="Cupom-verde" transform="matrix(4.61826,0,0,6.33469,4895.98,-2661.31)">
                <path d="M15,540.625L37.5,540.625L37.5,561.458L36.094,560L34.688,561.458L33.281,560L31.875,561.458L30.469,560L29.063,561.458L27.656,560L26.25,561.458L24.844,560L23.438,561.458L22.031,560L20.625,561.458L19.219,560L17.813,561.458L16.406,560L15,561.458L15,540.625ZM35,553.125L35,552.083L17.5,552.083L17.5,553.125L35,553.125ZM35,551.042L35,550L17.5,550L17.5,551.042L35,551.042ZM35,548.958L35,547.917L17.5,547.917L17.5,548.958L35,548.958ZM35,546.875L35,545.833L17.5,545.833L17.5,546.875L35,546.875ZM17.813,540.625L15,540.625L16.406,542.083L17.813,540.625ZM23.438,540.625L20.625,540.625L22.031,542.083L23.438,540.625ZM20.625,540.625L17.813,540.625L19.219,542.083L20.625,540.625ZM29.063,540.625L26.25,540.625L27.656,542.083L29.063,540.625ZM26.25,540.625L23.438,540.625L24.844,542.083L26.25,540.625ZM37.5,540.625L34.688,540.625L36.094,542.083L37.5,540.625ZM34.688,540.625L31.875,540.625L33.281,542.083L34.688,540.625ZM31.875,540.625L29.063,540.625L30.469,542.083L31.875,540.625Z" style="fill:rgb(34,181,115);"/>
            </g>
        </g>
    </g>
</svg>
