<?xml version="1.0" encoding="UTF-8" standalone="no"?>
<!DOCTYPE svg PUBLIC "-//W3C//DTD SVG 1.1//EN" "http://www.w3.org/Graphics/SVG/1.1/DTD/svg11.dtd">
<svg width="100%" height="100%" viewBox="0 0 100 100" version="1.1" xmlns="http://www.w3.org/2000/svg" xmlns:xlink="http://www.w3.org/1999/xlink" xml:space="preserve" style="fill-rule:evenodd;clip-rule:evenodd;stroke-linejoin:round;stroke-miterlimit:1.41421;">
    <g transform="matrix(1,0,0,1,-1320,-250)">
        <g transform="matrix(0.866127,0,0,0.757734,-3095.54,-508.44)">
            <g id="Donut" transform="matrix(-0.95942,0,0,1.09666,5752.14,-3117.95)">
                <path d="M621.61,3755.83C654.818,3755.83 681.78,3782.79 681.78,3816C681.78,3849.21 654.818,3876.17 621.61,3876.17C588.401,3876.17 561.44,3849.21 561.44,3816C561.44,3782.79 588.401,3755.83 621.61,3755.83ZM621.61,3785.91C638.214,3785.91 651.695,3799.4 651.695,3816C651.695,3832.6 638.214,3846.09 621.61,3846.09C605.005,3846.09 591.525,3832.6 591.525,3816C591.525,3799.4 605.005,3785.91 621.61,3785.91Z" style="fill:rgb(230,230,230);"/>
                <clipPath id="_clip1">
                    <path d="M621.61,3755.83C654.818,3755.83 681.78,3782.79 681.78,3816C681.78,3849.21 654.818,3876.17 621.61,3876.17C588.401,3876.17 561.44,3849.21 561.44,3816C561.44,3782.79 588.401,3755.83 621.61,3755.83ZM621.61,3785.91C638.214,3785.91 651.695,3799.4 651.695,3816C651.695,3832.6 638.214,3846.09 621.61,3846.09C605.005,3846.09 591.525,3832.6 591.525,3816C591.525,3799.4 605.005,3785.91 621.61,3785.91Z"/>
                </clipPath>
                <g clip-path="url(#_clip1)">
                    <g transform="matrix(-1.07446,0,0,1.01983,2499.77,3489.65)">
                        <rect x="1748" y="261" width="56" height="59" style="fill:rgb(34,181,115);"/>
                    </g>
                </g>
            </g>
        </g>
    </g>
</svg>
