<?xml version="1.0" encoding="UTF-8" standalone="no"?>
<!DOCTYPE svg PUBLIC "-//W3C//DTD SVG 1.1//EN" "http://www.w3.org/Graphics/SVG/1.1/DTD/svg11.dtd">
<svg width="100%" height="100%" viewBox="0 0 80 100" version="1.1" xmlns="http://www.w3.org/2000/svg" xmlns:xlink="http://www.w3.org/1999/xlink" xml:space="preserve" style="fill-rule:evenodd;clip-rule:evenodd;stroke-linejoin:round;stroke-miterlimit:1.41421;">
    <g transform="matrix(1,0,0,1,-1210,-806)">
        <g transform="matrix(0.866127,0,0,0.757734,-3095.54,-508.44)">
            <g id="Cadeado-aberto" transform="matrix(0.923652,0,0,1.26694,4032.36,1382.11)">
                <g transform="matrix(0.260417,0,0,0.260417,1016.25,283.504)">
                    <path d="M354.951,160C371.033,160.041 384,170.872 384,184.207L384,355.793C384,369.153 370.984,380 354.951,380L29.049,380C13.016,380 0,369.153 0,355.793L0,184.207C0,170.872 12.967,160.041 29.049,160L354.951,160ZM226.978,340L214.091,281.054C232.899,274.021 246,258.275 246,240C246,215.164 221.803,195 192,195C162.197,195 138,215.164 138,240C138,258.275 151.101,274.021 169.909,281.054L157.022,340L226.978,340Z" style="fill:rgb(34,181,115);"/>
                </g>
                <g transform="matrix(0.260417,0,0,0.260417,1016.25,283.504)">
                    <path d="M48,100C48.032,33.76 112.512,-19.973 192,-20C271.508,-19.973 336,33.787 336,100L336,160L273.6,160L273.6,100C273.6,62.47 237.036,32 192,32C146.964,32 110.4,62.47 110.4,100C110.4,100 48,100 48,100ZM48,160L110.4,160C110.4,160 48,160 48,160L48,160Z" style="fill:rgb(230,230,230);"/>
                </g>
            </g>
        </g>
    </g>
</svg>
