<?xml version="1.0" encoding="UTF-8" standalone="no"?>
<!DOCTYPE svg PUBLIC "-//W3C//DTD SVG 1.1//EN" "http://www.w3.org/Graphics/SVG/1.1/DTD/svg11.dtd">
<svg width="100%" height="100%" viewBox="0 0 80 95" version="1.1" xmlns="http://www.w3.org/2000/svg" xmlns:xlink="http://www.w3.org/1999/xlink" xml:space="preserve" style="fill-rule:evenodd;clip-rule:evenodd;stroke-linejoin:round;stroke-miterlimit:1.41421;">
    <g transform="matrix(1,0,0,1,-1330,-811)">
        <g transform="matrix(0.866127,0,0,0.757734,-3095.54,-508.44)">
            <g id="Cadeado-fechado" transform="matrix(0.923652,0,0,1.26694,4170.91,1382.11)">
                <g transform="matrix(0.260417,0,0,0.260417,1016.25,283.504)">
                    <path d="M354.951,160C371.033,160.041 384,170.872 384,184.207L384,355.793C384,369.153 370.984,380 354.951,380L29.049,380C13.016,380 0,369.153 0,355.793L0,184.207C0,170.872 12.967,160.041 29.049,160L354.951,160ZM226.978,340L214.091,281.054C232.899,274.021 246,258.275 246,240C246,215.164 221.803,195 192,195C162.197,195 138,215.164 138,240C138,258.275 151.101,274.021 169.909,281.054L157.022,340L226.978,340Z" style="fill:rgb(34,181,115);"/>
                </g>
                <g transform="matrix(0.260417,0,0,0.260417,1016.25,283.504)">
                    <path d="M48,160L48,120C48,53.77 112.524,0 192,0C271.476,0 336,53.77 336,120L336,160L273.6,160L273.6,120C273.6,82.47 237.036,52 192,52C146.964,52 110.4,82.47 110.4,120L110.4,160L48,160Z" style="fill:rgb(230,230,230);"/>
                </g>
            </g>
        </g>
    </g>
</svg>
