<?xml version="1.0" encoding="UTF-8" standalone="no"?>
<!DOCTYPE svg PUBLIC "-//W3C//DTD SVG 1.1//EN" "http://www.w3.org/Graphics/SVG/1.1/DTD/svg11.dtd">
<svg width="100%" height="100%" viewBox="0 0 450 450" version="1.1" xmlns="http://www.w3.org/2000/svg" xmlns:xlink="http://www.w3.org/1999/xlink" xml:space="preserve" style="fill-rule:evenodd;clip-rule:evenodd;stroke-linejoin:round;stroke-miterlimit:1.41421;">
    <g transform="matrix(1,0,0,1,-152,-1018)">
        <g transform="matrix(0.866127,0,0,0.757734,-3095.54,-508.44)">
            <g id="Settings-1" transform="matrix(8.95783,0,0,10.2392,3749.49,2014.48)">
                <circle cx="29" cy="29" r="29" style="fill:rgb(85,96,128);"/>
                <path d="M25.556,5.568C23.413,5.156 22.431,2.652 23.721,0.893L24.063,0.427C21.184,0.921 18.453,1.844 15.93,3.119C17.688,3.541 19,5.112 19,7C19,9.209 17.209,11 15,11C12.791,11 11,9.209 11,7C11,6.729 11.028,6.464 11.08,6.208C12.19,5.334 8.913,7.806 6.705,10.457C7.162,11.367 7.17,12.498 6.523,13.451L5.698,14.668L7.656,16.626L8.892,15.72C10.652,14.43 13.155,15.412 13.567,17.555L13.846,19L16.615,19L16.779,17.934C17.118,15.73 19.675,14.671 21.473,15.99L22.342,16.627L24.3,14.669L23.475,13.452C22.251,11.645 23.327,9.18 25.483,8.848L27,8.615L27,5.846L25.556,5.568Z" style="fill:rgb(38,185,154);fill-rule:nonzero;"/>
                <path d="M49,44.5C49,41.462 51.462,39 54.5,39C55.065,39 55.609,39.086 56.122,39.244C56.742,37.602 57.224,35.891 57.54,34.122C56.912,33.577 56.453,32.817 56.311,31.894L56.019,30L52.557,30L52.109,32.331C51.605,34.95 48.587,36.201 46.378,34.705L44.413,33.374L41.965,35.822L43.098,37.367C44.711,39.566 43.483,42.696 40.804,43.211L39,43.558L39,47.02L40.894,47.311C43.59,47.726 44.934,50.808 43.404,53.066L42.373,54.587L42.468,54.682C45.54,53.067 48.279,50.912 50.576,48.352C49.602,47.359 49,46 49,44.5Z" style="fill:rgb(66,74,96);fill-rule:nonzero;"/>
                <path d="M52.899,23.485C52.888,23.474 52.873,23.471 52.861,23.46C54.254,21.837 55.256,19.869 55.715,17.699C52.78,10.77 47.229,5.219 40.3,2.284C38.13,2.742 36.162,3.745 34.539,5.138C34.529,5.127 34.525,5.112 34.514,5.1L33.1,3.686C32.709,3.295 32.077,3.295 31.686,3.686C31.295,4.077 31.295,4.709 31.686,5.1L33.1,6.514C33.112,6.526 33.129,6.53 33.141,6.541C31.389,8.58 30.258,11.164 30.043,14.008C30.028,14.008 30.015,14 30,14L28,14C27.448,14 27,14.447 27,15C27,15.553 27.448,16 28,16L30,16C30.018,16 30.032,15.991 30.05,15.99C30.265,18.834 31.389,21.419 33.141,23.459C33.129,23.47 33.113,23.474 33.101,23.486L31.687,24.9C31.296,25.291 31.296,25.923 31.687,26.314C31.882,26.509 32.138,26.607 32.394,26.607C32.65,26.607 32.906,26.509 33.101,26.314L34.515,24.9C34.527,24.888 34.531,24.872 34.542,24.86C36.581,26.611 39.167,27.736 42.011,27.951C42.009,27.968 42,27.982 42,28L42,30C42,30.553 42.448,31 43,31C43.552,31 44,30.553 44,30L44,28C44,27.984 43.992,27.972 43.991,27.956C46.835,27.741 49.419,26.61 51.458,24.858C51.469,24.87 51.473,24.887 51.485,24.899L52.899,26.313C53.094,26.508 53.35,26.606 53.606,26.606C53.862,26.606 54.118,26.508 54.313,26.313C54.704,25.922 54.704,25.29 54.313,24.899L52.899,23.485ZM43,18C41.343,18 40,16.657 40,15C40,13.343 41.343,12 43,12C44.657,12 46,13.343 46,15C46,16.657 44.657,18 43,18Z" style="fill:rgb(231,236,237);fill-rule:nonzero;"/>
                <circle cx="18" cy="40" r="3" style="fill:rgb(231,236,237);"/>
                <path d="M36.406,47.086L33.933,45.987C33.926,45.984 33.919,45.985 33.913,45.983C34.615,44.123 35,42.107 35,40C35,38.177 34.706,36.424 34.175,34.778C34.182,34.776 34.188,34.777 34.195,34.774L36.362,33.931C36.877,33.731 37.132,33.152 36.932,32.637C36.732,32.122 36.155,31.865 35.638,32.068L33.471,32.911C33.461,32.915 33.455,32.923 33.445,32.927C31.861,29.474 29.162,26.646 25.799,24.905C25.804,24.895 25.811,24.889 25.816,24.879L26.915,22.406C27.139,21.901 26.912,21.31 26.407,21.086C25.902,20.863 25.312,21.09 25.087,21.594L23.988,24.067C23.983,24.079 23.985,24.091 23.98,24.103C22.117,23.401 20.108,23 18,23C16.175,23 14.426,23.303 12.78,23.835C12.777,23.825 12.779,23.815 12.775,23.805L11.932,21.637C11.732,21.122 11.151,20.866 10.638,21.068C10.123,21.267 9.868,21.847 10.068,22.362L10.911,24.53C10.914,24.539 10.921,24.545 10.925,24.554C7.457,26.15 4.628,28.88 2.894,32.271C2.879,32.264 2.87,32.25 2.854,32.243L0.725,31.306C0.518,31.215 0.301,31.217 0.096,31.265C0.149,31.954 0.22,32.638 0.321,33.313L2.048,34.073C2.062,34.079 2.078,34.077 2.092,34.082C1.703,35.129 1.404,36.219 1.226,37.352L1.226,37.353C1.569,38.495 1.982,39.606 2.457,40.684C2.479,40.733 2.501,40.781 2.523,40.83C2.74,41.316 2.971,41.794 3.214,42.266C3.24,42.316 3.265,42.367 3.291,42.417C4.095,43.955 5.034,45.412 6.091,46.772C6.132,46.824 6.173,46.877 6.215,46.929C6.544,47.346 6.883,47.755 7.234,48.153C7.258,48.18 7.281,48.208 7.305,48.235C8.074,49.102 8.895,49.923 9.762,50.692C9.789,50.716 9.817,50.739 9.844,50.763C10.242,51.114 10.651,51.453 11.068,51.782C11.12,51.824 11.173,51.865 11.225,51.906C12.585,52.963 14.042,53.902 15.58,54.706C15.63,54.732 15.681,54.758 15.731,54.784C16.202,55.027 16.681,55.257 17.166,55.474C17.215,55.496 17.263,55.518 17.312,55.54C18.39,56.015 19.501,56.428 20.643,56.771L20.645,56.771C21.507,56.636 22.341,56.423 23.155,56.164C23.161,56.181 23.157,56.199 23.164,56.216L23.657,57.498C24.405,57.637 25.162,57.754 25.929,57.834L25.033,55.5C25.028,55.488 25.018,55.48 25.013,55.468C28.495,53.891 31.339,51.172 33.092,47.794C33.103,47.8 33.11,47.81 33.121,47.815L35.594,48.914C35.726,48.973 35.864,49 36,49C36.383,49 36.749,48.778 36.915,48.406C37.138,47.901 36.911,47.311 36.406,47.086ZM18,47C14.134,47 11,43.866 11,40C11,36.134 14.134,33 18,33C21.866,33 25,36.134 25,40C25,43.866 21.866,47 18,47Z" style="fill:rgb(235,186,22);fill-rule:nonzero;"/>
            </g>
        </g>
    </g>
</svg>
