<?xml version="1.0" encoding="UTF-8" standalone="no"?>
<!DOCTYPE svg PUBLIC "-//W3C//DTD SVG 1.1//EN" "http://www.w3.org/Graphics/SVG/1.1/DTD/svg11.dtd">
<svg width="100%" height="100%" viewBox="0 0 450 450" version="1.1" xmlns="http://www.w3.org/2000/svg" xmlns:xlink="http://www.w3.org/1999/xlink" xml:space="preserve" style="fill-rule:evenodd;clip-rule:evenodd;stroke-linejoin:round;stroke-miterlimit:1.41421;">
    <g transform="matrix(1,0,0,1,-642,-1018)">
        <g transform="matrix(0.866127,0,0,0.757734,-3095.54,-508.44)">
            <g id="Settings-2" transform="matrix(8.95783,0,0,10.2392,4315.23,2014.48)">
                <circle cx="29" cy="29" r="29" style="fill:rgb(66,74,96);"/>
                <g transform="matrix(0.128889,0,0,0.128889,-82.7467,-147.964)">
                    <path d="M650.618,1434.84L650.669,1434.79L650.666,1434.78C653.509,1432.39 656.47,1430.11 659.582,1427.97C659.51,1427.89 659.421,1427.83 659.364,1427.73L650.798,1412.9C648.649,1409.21 649.922,1404.45 653.638,1402.3C657.347,1400.16 662.095,1401.43 664.236,1405.14L672.802,1419.97C672.851,1420.06 672.868,1420.15 672.912,1420.24C676.701,1418.41 680.553,1416.82 684.449,1415.48C693.44,1412.36 702.665,1410.51 711.897,1409.86C711.894,1409.81 711.879,1409.76 711.863,1409.71L711.85,1409.66L711.848,1409.65L711.848,1409.65L711.846,1409.64L711.839,1409.62L711.838,1409.61L711.837,1409.61L711.834,1409.59L711.831,1409.57L711.83,1409.57L711.83,1409.57L711.83,1409.56L711.828,1409.54L711.828,1409.52C711.828,1409.52 711.828,1392.4 711.828,1392.4C711.828,1392.33 711.828,1392.26 711.83,1392.2C711.88,1390.21 712.677,1388.41 713.951,1387.06L713.968,1387.04L713.968,1387.04L713.971,1387.04L714.05,1386.96L714.098,1386.91L714.099,1386.91L714.101,1386.91L714.15,1386.86L714.231,1386.78L714.234,1386.78L714.234,1386.78L714.252,1386.76C715.597,1385.49 717.397,1384.69 719.386,1384.64L719.386,1384.64L719.586,1384.64C719.586,1384.64 719.786,1384.64 719.786,1384.64C721.775,1384.69 723.576,1385.49 724.92,1386.76L724.941,1386.78L725.022,1386.86L725.072,1386.91L725.074,1386.91L725.123,1386.96L725.202,1387.04L725.222,1387.06C726.495,1388.41 727.292,1390.21 727.342,1392.2L727.345,1392.4C727.345,1392.4 727.345,1409.53 727.345,1409.53C727.345,1409.57 727.337,1409.6 727.328,1409.63L727.308,1409.7C727.298,1409.74 727.291,1409.77 727.291,1409.81C740.822,1410.8 754.073,1414.35 766.285,1420.26C766.332,1420.17 766.332,1420.07 766.378,1419.99L774.944,1405.16C777.085,1401.44 781.818,1400.18 785.542,1402.32C789.251,1404.46 790.523,1409.2 788.382,1412.92L779.816,1427.75C779.764,1427.84 779.683,1427.91 779.618,1428C783.484,1430.61 787.196,1433.49 790.725,1436.64L790.706,1436.7C794.47,1440.05 798.023,1443.69 801.329,1447.62L801.339,1447.62C803.727,1450.46 806.012,1453.42 808.152,1456.53C808.232,1456.46 808.296,1456.37 808.391,1456.31L823.218,1447.75C826.911,1445.6 831.667,1446.87 833.816,1450.59C835.958,1454.3 834.693,1459.04 830.977,1461.18L816.15,1469.75C816.065,1469.8 815.968,1469.82 815.881,1469.86C817.714,1473.65 819.297,1477.5 820.64,1481.4C823.766,1490.39 825.61,1499.61 826.259,1508.85C826.313,1508.84 826.363,1508.83 826.414,1508.81L826.459,1508.8L826.467,1508.8L826.469,1508.8L826.478,1508.79L826.505,1508.79L826.509,1508.79L826.512,1508.79L826.534,1508.78L826.552,1508.78L826.554,1508.78L826.555,1508.78L826.557,1508.78L826.576,1508.78L826.601,1508.78L843.724,1508.78L843.924,1508.78C845.913,1508.83 847.713,1509.63 849.058,1510.9L849.079,1510.92L849.16,1511L849.209,1511.05L849.212,1511.05L849.261,1511.1L849.34,1511.18L849.359,1511.2C850.633,1512.55 851.43,1514.35 851.48,1516.33L851.483,1516.53C851.483,1516.53 851.48,1516.74 851.48,1516.74L851.48,1516.74C851.43,1518.72 850.633,1520.52 849.359,1521.87L849.342,1521.89L849.342,1521.89L849.34,1521.89L849.261,1521.97L849.212,1522.02L849.211,1522.02L849.209,1522.02L849.16,1522.07L849.079,1522.15L849.077,1522.15L849.076,1522.15L849.058,1522.17C847.714,1523.44 845.913,1524.24 843.924,1524.29L843.924,1524.29L843.724,1524.29L826.593,1524.29C826.492,1524.29 826.415,1524.24 826.314,1524.24C825.321,1537.77 821.775,1551.02 815.863,1563.23C815.895,1563.25 815.929,1563.26 815.964,1563.27L816.034,1563.29C816.068,1563.3 816.102,1563.31 816.134,1563.33L830.961,1571.89C834.678,1574.03 835.942,1578.77 833.801,1582.49C831.659,1586.2 826.919,1587.47 823.203,1585.33L808.376,1576.77C808.284,1576.71 808.208,1576.63 808.121,1576.57C805.508,1580.43 802.626,1584.14 799.484,1587.67L799.424,1587.65L799.421,1587.66C776.547,1580.45 755.245,1569.69 736.165,1556.02L736.205,1556L736.159,1555.97C737.803,1555.28 739.425,1554.52 741.008,1553.61C746.682,1550.33 751.324,1545.94 754.816,1540.89L754.947,1540.7L754.956,1540.68C762.973,1528.92 764.813,1513.56 759.047,1499.93L759.023,1499.96C758.54,1498.81 758.023,1497.67 757.442,1496.55C757.193,1496.08 756.934,1495.61 756.665,1495.14C752.002,1487.07 745.089,1481.14 737.198,1477.58L737.264,1477.53C725.126,1472.05 710.612,1472.29 698.196,1479.46C690.119,1484.12 684.191,1491.03 680.63,1498.92L680.586,1498.86L680.556,1498.92C667.408,1479.5 657.213,1457.92 650.618,1434.84Z" style="fill:rgb(199,202,199);"/>
                </g>
                <path d="M53.148,21.529C53.005,20.995 52.456,20.676 51.923,20.822L49.654,21.43C49.285,20.262 48.817,19.128 48.254,18.037L50.284,16.865C50.763,16.589 50.926,15.977 50.65,15.499C50.374,15.02 49.761,14.855 49.284,15.133L47.239,16.314C46.569,15.267 45.833,14.285 45.02,13.393L46.677,11.736C47.068,11.345 47.068,10.713 46.677,10.322C46.286,9.931 45.654,9.931 45.263,10.322L43.61,11.975C42.697,11.143 41.716,10.407 40.689,9.752L41.865,7.716C42.141,7.237 41.978,6.626 41.499,6.35C41.02,6.073 40.408,6.237 40.133,6.716L38.954,8.758C37.863,8.196 36.729,7.735 35.563,7.365L36.176,5.077C36.319,4.544 36.002,3.995 35.469,3.852C34.932,3.705 34.387,4.026 34.244,4.559L33.631,6.847C32.439,6.584 31.226,6.417 30,6.358L30,4C30,3.447 29.552,3 29,3C28.448,3 28,3.447 28,4L28,6.352C26.783,6.406 25.566,6.553 24.359,6.817L23.754,4.559C23.611,4.026 23.066,3.705 22.529,3.852C21.996,3.995 21.679,4.543 21.822,5.077L22.428,7.34C21.277,7.706 20.15,8.189 19.045,8.76L17.865,6.716C17.589,6.236 16.978,6.072 16.5,6.35C16.021,6.626 15.858,7.238 16.134,7.716L17.306,9.745C16.266,10.412 15.294,11.16 14.396,11.982L12.736,10.322C12.345,9.931 11.713,9.931 11.322,10.322C10.931,10.713 10.931,11.345 11.322,11.736L12.986,13.4C12.161,14.309 11.416,15.283 10.758,16.313L8.715,15.134C8.235,14.857 7.625,15.021 7.349,15.5C7.073,15.979 7.237,16.59 7.715,16.866L9.76,18.047C9.2,19.132 8.73,20.265 8.357,21.434L6.076,20.822C5.545,20.677 4.994,20.996 4.851,21.529C4.708,22.062 5.024,22.611 5.558,22.754L7.839,23.366C7.501,24.901 7.318,26.481 7.323,28.087C7.324,28.639 7.772,29.084 8.323,29.084C8.324,29.084 8.325,29.084 8.326,29.084C8.878,29.082 9.325,28.633 9.323,28.081C9.308,23.117 11.175,18.401 14.399,14.814L21.969,22.384C21.204,23.341 20.633,24.451 20.306,25.671C19.683,27.992 20.003,30.418 21.204,32.499C22.81,35.275 25.798,37 29.007,37C30.578,37 32.132,36.582 33.499,35.793C35.581,34.592 37.069,32.651 37.691,30.329C38.314,28.008 37.994,25.582 36.793,23.501C36.565,23.107 36.303,22.74 36.023,22.39L43.607,14.806C44.519,15.816 45.344,16.931 46.051,18.156C47.783,21.156 48.689,24.588 48.671,28.08C48.668,28.632 49.114,29.082 49.666,29.085C49.667,29.085 49.669,29.085 49.671,29.085C50.221,29.085 50.668,28.641 50.671,28.09C50.679,26.493 50.502,24.91 50.167,23.365L52.44,22.755C52.975,22.611 53.291,22.063 53.148,21.529ZM28.993,19C27.422,19 25.868,19.418 24.501,20.207C24.106,20.435 23.741,20.697 23.39,20.975L15.811,13.396C16.828,12.474 17.943,11.648 19.156,10.948C26.729,6.575 36.024,7.83 42.193,13.393L34.608,20.978C33.033,19.725 31.062,19 28.993,19ZM35.76,29.812C35.276,31.618 34.118,33.126 32.499,34.061C31.436,34.675 30.228,35 29.007,35C26.51,35 24.185,33.658 22.939,31.499C22.004,29.88 21.756,27.994 22.24,26.188C22.724,24.382 23.882,22.874 25.501,21.939C26.564,21.325 27.772,21 28.993,21C31.49,21 33.815,22.342 35.061,24.501C35.996,26.12 36.244,28.006 35.76,29.812Z" style="fill:white;fill-rule:nonzero;"/>
                <g transform="matrix(0.128889,0,0,0.128889,-82.7467,-147.964)">
                    <path d="M907.399,1508.78L907.424,1508.78L907.448,1508.78L907.466,1508.78L907.488,1508.79L907.495,1508.79L907.522,1508.79L907.541,1508.8L907.586,1508.81C907.637,1508.83 907.687,1508.84 907.741,1508.85C908.39,1499.61 910.234,1490.39 913.36,1481.4C914.703,1477.5 916.286,1473.65 918.119,1469.86C918.032,1469.82 917.935,1469.8 917.85,1469.75L903.023,1461.18C899.307,1459.04 898.042,1454.3 900.184,1450.59C902.333,1446.87 907.089,1445.6 910.782,1447.75L925.609,1456.31C925.704,1456.37 925.768,1456.46 925.848,1456.53C927.988,1453.42 930.273,1450.46 932.661,1447.62L932.671,1447.62C935.977,1443.69 939.53,1440.05 943.294,1436.7L943.275,1436.64C946.804,1433.49 950.516,1430.61 954.382,1428C954.317,1427.91 954.236,1427.84 954.184,1427.75L945.618,1412.92C943.477,1409.2 944.749,1404.46 948.458,1402.32C952.182,1400.18 956.915,1401.44 959.056,1405.16L967.622,1419.99C967.668,1420.07 967.668,1420.17 967.715,1420.26C979.927,1414.35 993.178,1410.8 1006.71,1409.81C1006.71,1409.77 1006.7,1409.74 1006.69,1409.7L1006.67,1409.63C1006.66,1409.6 1006.65,1409.57 1006.65,1409.53C1006.65,1409.53 1006.65,1392.4 1006.65,1392.4L1006.66,1392.2L1006.66,1392.2C1006.71,1390.21 1007.5,1388.41 1008.78,1387.06L1008.8,1387.04L1008.8,1387.04L1008.8,1387.04L1008.88,1386.96L1008.93,1386.91L1008.93,1386.91L1008.93,1386.91L1008.98,1386.86L1009.06,1386.78L1009.06,1386.78L1009.06,1386.78L1009.08,1386.76C1010.42,1385.49 1012.23,1384.69 1014.21,1384.64L1014.21,1384.64L1014.41,1384.64L1014.61,1384.64C1016.6,1384.69 1018.4,1385.49 1019.75,1386.76L1019.77,1386.78L1019.85,1386.86L1019.9,1386.91L1019.9,1386.91L1019.95,1386.96L1020.03,1387.04L1020.05,1387.06C1021.32,1388.41 1022.12,1390.21 1022.17,1392.2C1022.17,1392.26 1022.17,1392.33 1022.17,1392.4C1022.17,1392.4 1022.17,1409.52 1022.17,1409.52L1022.17,1409.54L1022.17,1409.56L1022.17,1409.57L1022.17,1409.57L1022.17,1409.57L1022.17,1409.59L1022.16,1409.61L1022.16,1409.61L1022.16,1409.62L1022.15,1409.64L1022.15,1409.65L1022.15,1409.65L1022.15,1409.66L1022.14,1409.71C1022.12,1409.76 1022.11,1409.81 1022.1,1409.86C1031.34,1410.51 1040.56,1412.36 1049.55,1415.48C1053.45,1416.82 1057.3,1418.41 1061.09,1420.24C1061.13,1420.15 1061.15,1420.06 1061.2,1419.97L1069.76,1405.14C1071.9,1401.43 1076.65,1400.16 1080.36,1402.3C1084.08,1404.45 1085.35,1409.21 1083.2,1412.9L1074.64,1427.73C1074.58,1427.83 1074.49,1427.89 1074.42,1427.97C1077.53,1430.11 1080.49,1432.39 1083.33,1434.78L1083.33,1434.79L1083.38,1434.84C1076.79,1457.92 1066.59,1479.5 1053.44,1498.92L1053.41,1498.86L1053.37,1498.92C1049.81,1491.03 1043.88,1484.12 1035.8,1479.46C1023.39,1472.29 1008.87,1472.05 996.736,1477.53L996.802,1477.58C988.911,1481.14 981.998,1487.07 977.335,1495.14C977.066,1495.61 976.807,1496.08 976.558,1496.55C975.977,1497.67 975.46,1498.81 974.977,1499.96L974.953,1499.93C969.187,1513.56 971.027,1528.92 979.044,1540.68L979.184,1540.89C982.676,1545.94 987.318,1550.33 992.992,1553.61C994.575,1554.52 996.197,1555.28 997.841,1555.97L997.795,1556L997.835,1556.02C978.755,1569.69 957.453,1580.45 934.579,1587.66L934.576,1587.65L934.516,1587.67C931.374,1584.14 928.492,1580.43 925.879,1576.57C925.792,1576.63 925.716,1576.71 925.624,1576.77L910.797,1585.33C907.081,1587.47 902.341,1586.2 900.199,1582.49C898.058,1578.77 899.322,1574.03 903.039,1571.89L917.866,1563.33C917.898,1563.31 917.932,1563.3 917.966,1563.29L918.036,1563.27C918.071,1563.26 918.105,1563.25 918.137,1563.23C912.225,1551.02 908.679,1537.77 907.686,1524.24C907.585,1524.24 907.508,1524.29 907.407,1524.29L890.276,1524.29L890.076,1524.29C888.087,1524.24 886.286,1523.44 884.942,1522.17L884.921,1522.15L884.84,1522.07L884.791,1522.02L884.788,1522.02L884.739,1521.97L884.66,1521.89L884.641,1521.87C883.367,1520.52 882.57,1518.72 882.52,1516.74L882.517,1516.53L882.52,1516.33L882.52,1516.33C882.57,1514.35 883.367,1512.55 884.641,1511.2L884.658,1511.18L884.658,1511.18L884.66,1511.18L884.739,1511.1L884.788,1511.05L884.789,1511.05L884.791,1511.05L884.84,1511L884.921,1510.92L884.923,1510.92L884.924,1510.92L884.942,1510.9C886.287,1509.63 888.087,1508.83 890.076,1508.78L890.076,1508.78L890.276,1508.78L907.399,1508.78Z" style="fill:rgb(237,113,97);"/>
                </g>
            </g>
        </g>
    </g>
</svg>
